<svg xmlns="http://www.w3.org/2000/svg" xmlns:xlink="http://www.w3.org/1999/xlink" width="40" zoomAndPan="magnify" viewBox="0 0 30 30.000001" height="40" preserveAspectRatio="xMidYMid meet" version="1.0"><defs><clipPath id="237c3d744b"><path d="M 0.484375 0 L 29.515625 0 L 29.515625 29.03125 L 0.484375 29.03125 Z M 0.484375 0 " clip-rule="nonzero"/></clipPath></defs><g clip-path="url(#237c3d744b)"><path fill="#ff3131" d="M 15 29.03125 C 23.015625 29.03125 29.515625 22.53125 29.515625 14.515625 C 29.515625 6.5 23.015625 0 15 0 C 6.984375 0 0.484375 6.5 0.484375 14.515625 C 0.484375 22.53125 6.984375 29.03125 15 29.03125 Z M 9.582031 9.097656 C 8.296875 9.097656 7.257812 10.136719 7.257812 11.417969 L 7.257812 17.613281 C 7.257812 18.894531 8.296875 19.933594 9.582031 19.933594 L 16.933594 19.933594 C 18.21875 19.933594 19.257812 18.894531 19.257812 17.613281 L 19.257812 17.253906 L 21.652344 18.320312 C 21.894531 18.425781 22.167969 18.40625 22.390625 18.261719 C 22.609375 18.121094 22.742188 17.875 22.742188 17.613281 L 22.742188 11.417969 C 22.742188 11.15625 22.609375 10.914062 22.390625 10.769531 C 22.167969 10.628906 21.894531 10.605469 21.652344 10.710938 L 19.257812 11.777344 L 19.257812 11.417969 C 19.257812 10.136719 18.21875 9.097656 16.933594 9.097656 Z M 10.355469 11.417969 L 13.453125 11.417969 L 13.453125 12.96875 L 10.355469 12.96875 Z M 10.355469 11.417969 " fill-opacity="1" fill-rule="evenodd"/></g></svg>