<svg xmlns="http://www.w3.org/2000/svg" xmlns:xlink="http://www.w3.org/1999/xlink" width="40" zoomAndPan="magnify" viewBox="0 0 30 30.000001" height="40" preserveAspectRatio="xMidYMid meet" version="1.0"><defs><filter x="0%" y="0%" width="100%" height="100%" id="e98bdf941b"><feColorMatrix values="0 0 0 0 1 0 0 0 0 1 0 0 0 0 1 0 0 0 1 0" color-interpolation-filters="sRGB"/></filter><clipPath id="e7b893996b"><path d="M 6 0 L 29.515625 0 L 29.515625 25 L 6 25 Z M 6 0 " clip-rule="nonzero"/></clipPath><clipPath id="bcd0996cf3"><path d="M 0.484375 6 L 21 6 L 21 29.03125 L 0.484375 29.03125 Z M 0.484375 6 " clip-rule="nonzero"/></clipPath><clipPath id="71139e7f5b"><path d="M 0.484375 6 L 19 6 L 19 29.03125 L 0.484375 29.03125 Z M 0.484375 6 " clip-rule="nonzero"/></clipPath><mask id="98bd9b3fff"><g filter="url(#e98bdf941b)"><rect x="-3" width="36" fill="#000000" y="-3" height="36.000001" fill-opacity="0.2"/></g></mask><clipPath id="aa9c202170"><path d="M 0.484375 0.269531 L 16 0.269531 L 16 23.03125 L 0.484375 23.03125 Z M 0.484375 0.269531 " clip-rule="nonzero"/></clipPath><clipPath id="930dea6ef8"><path d="M 9 0.269531 L 18 0.269531 L 18 23.03125 L 9 23.03125 Z M 9 0.269531 " clip-rule="nonzero"/></clipPath><clipPath id="159910f54c"><rect x="0" width="19" y="0" height="24"/></clipPath></defs><g clip-path="url(#e7b893996b)"><path fill="#e9e9ff" d="M 29.46875 3.195312 L 26.433594 24.429688 C 26.402344 24.640625 26.203125 24.789062 25.988281 24.757812 L 21.152344 24.070312 L 7.082031 22.058594 C 6.863281 22.027344 6.714844 21.828125 6.746094 21.617188 L 8.988281 5.925781 L 9.78125 0.382812 C 9.8125 0.167969 10.011719 0.0195312 10.222656 0.046875 L 29.132812 2.75 C 29.347656 2.78125 29.496094 2.980469 29.46875 3.195312 Z M 29.46875 3.195312 " fill-opacity="1" fill-rule="nonzero"/></g><path fill="#cfcfff" d="M 21.152344 6.347656 L 21.152344 24.070312 L 7.082031 22.058594 C 6.863281 22.027344 6.714844 21.828125 6.746094 21.617188 L 8.988281 5.925781 L 20.730469 5.925781 C 20.960938 5.925781 21.152344 6.117188 21.152344 6.347656 Z M 21.152344 6.347656 " fill-opacity="1" fill-rule="nonzero"/><path fill="#ed524e" d="M 27.417969 4.578125 L 25.222656 19.914062 L 21.152344 19.328125 L 9.167969 17.617188 L 10.839844 5.925781 L 11.359375 2.28125 Z M 27.417969 4.578125 " fill-opacity="1" fill-rule="nonzero"/><path fill="#b72a2a" d="M 21.152344 6.347656 L 21.152344 19.328125 L 9.167969 17.617188 L 10.839844 5.925781 L 20.730469 5.925781 C 20.960938 5.925781 21.152344 6.117188 21.152344 6.347656 Z M 21.152344 6.347656 " fill-opacity="1" fill-rule="nonzero"/><g clip-path="url(#bcd0996cf3)"><path fill="#e9e9ff" d="M 20.371094 7.195312 L 20.371094 28.640625 C 20.371094 28.859375 20.195312 29.035156 19.976562 29.035156 L 0.875 29.035156 C 0.660156 29.035156 0.484375 28.859375 0.484375 28.640625 L 0.484375 7.195312 C 0.484375 6.976562 0.660156 6.800781 0.875 6.800781 L 19.976562 6.800781 C 20.195312 6.800781 20.371094 6.976562 20.371094 7.195312 Z M 20.371094 7.195312 " fill-opacity="1" fill-rule="nonzero"/></g><path fill="#cfcfff" d="M 8.109375 26.441406 L 8.109375 26.957031 C 8.109375 27.023438 8.050781 27.082031 7.984375 27.082031 L 5.417969 27.082031 C 5.347656 27.082031 5.292969 27.023438 5.292969 26.957031 L 5.292969 26.441406 C 5.292969 26.371094 5.347656 26.316406 5.417969 26.316406 L 7.984375 26.316406 C 8.050781 26.316406 8.109375 26.371094 8.109375 26.441406 Z M 8.109375 26.441406 " fill-opacity="1" fill-rule="nonzero"/><path fill="#cfcfff" d="M 15.5625 26.441406 L 15.5625 26.957031 C 15.5625 27.023438 15.503906 27.082031 15.4375 27.082031 L 9.253906 27.082031 C 9.183594 27.082031 9.128906 27.023438 9.128906 26.957031 L 9.128906 26.441406 C 9.128906 26.371094 9.183594 26.316406 9.253906 26.316406 L 15.4375 26.316406 C 15.503906 26.316406 15.5625 26.371094 15.5625 26.441406 Z M 15.5625 26.441406 " fill-opacity="1" fill-rule="nonzero"/><path fill="#70c1f9" d="M 2.316406 8.851562 L 18.535156 8.851562 L 18.535156 24.339844 L 2.316406 24.339844 Z M 2.316406 8.851562 " fill-opacity="1" fill-rule="nonzero"/><path fill="#4f5d99" d="M 18.535156 18.835938 L 18.535156 24.339844 L 8.125 24.339844 L 11.492188 19.929688 L 11.785156 19.546875 L 13.351562 17.492188 L 17.511719 17.492188 Z M 18.535156 18.835938 " fill-opacity="1" fill-rule="nonzero"/><path fill="#3d4a75" d="M 15.445312 24.339844 L 8.125 24.339844 L 11.492188 19.929688 L 11.785156 19.546875 L 12.074219 19.929688 Z M 15.445312 24.339844 " fill-opacity="1" fill-rule="nonzero"/><path fill="#4f5d99" d="M 14.863281 24.339844 L 2.316406 24.339844 L 2.316406 18.835938 L 4.339844 16.183594 L 8.636719 16.183594 L 11.492188 19.929688 Z M 14.863281 24.339844 " fill-opacity="1" fill-rule="nonzero"/><path fill="#e9e9ff" d="M 8.636719 16.183594 L 7.230469 14.34375 C 6.855469 13.851562 6.117188 13.851562 5.742188 14.34375 L 4.339844 16.183594 Z M 8.636719 16.183594 " fill-opacity="1" fill-rule="nonzero"/><path fill="#e9e9ff" d="M 17.425781 14.3125 L 12.296875 14.3125 C 12.511719 13.820312 13 13.476562 13.570312 13.476562 C 13.789062 13.476562 13.996094 13.527344 14.179688 13.617188 C 14.542969 13.285156 15.027344 13.082031 15.554688 13.082031 C 16.394531 13.082031 17.113281 13.585938 17.425781 14.3125 Z M 17.425781 14.3125 " fill-opacity="1" fill-rule="nonzero"/><path fill="#e9e9ff" d="M 8.222656 12.5 L 3.84375 12.5 C 4.023438 12.078125 4.441406 11.785156 4.929688 11.785156 C 5.117188 11.785156 5.292969 11.828125 5.449219 11.90625 C 5.761719 11.621094 6.171875 11.449219 6.625 11.449219 C 7.339844 11.449219 7.957031 11.878906 8.222656 12.5 Z M 8.222656 12.5 " fill-opacity="1" fill-rule="nonzero"/><path fill="#fdc72e" d="M 12.59375 11.292969 C 12.59375 11.480469 12.558594 11.660156 12.488281 11.832031 C 12.414062 12.003906 12.3125 12.15625 12.183594 12.289062 C 12.050781 12.417969 11.898438 12.519531 11.726562 12.59375 C 11.550781 12.664062 11.375 12.699219 11.1875 12.699219 C 11 12.699219 10.820312 12.664062 10.648438 12.59375 C 10.476562 12.519531 10.324219 12.417969 10.191406 12.289062 C 10.058594 12.15625 9.957031 12.003906 9.886719 11.832031 C 9.8125 11.660156 9.777344 11.480469 9.777344 11.292969 C 9.777344 11.105469 9.8125 10.925781 9.886719 10.753906 C 9.957031 10.582031 10.058594 10.429688 10.191406 10.296875 C 10.324219 10.164062 10.476562 10.0625 10.648438 9.992188 C 10.820312 9.921875 11 9.882812 11.1875 9.882812 C 11.375 9.882812 11.550781 9.921875 11.726562 9.992188 C 11.898438 10.0625 12.050781 10.164062 12.183594 10.296875 C 12.3125 10.429688 12.414062 10.582031 12.488281 10.753906 C 12.558594 10.925781 12.59375 11.105469 12.59375 11.292969 Z M 12.59375 11.292969 " fill-opacity="1" fill-rule="nonzero"/><path fill="#e9e9ff" d="M 17.511719 17.492188 L 16.078125 15.617188 C 15.753906 15.191406 15.109375 15.191406 14.78125 15.617188 L 13.351562 17.492188 Z M 17.511719 17.492188 " fill-opacity="1" fill-rule="nonzero"/><g clip-path="url(#71139e7f5b)"><g mask="url(#98bd9b3fff)"><g transform="matrix(1, 0, 0, 1, 0, 6)"><g clip-path="url(#159910f54c)"><g clip-path="url(#aa9c202170)"><path fill="#ffffff" d="M 0.890625 0.800781 L 8.367188 23.035156 L 15.894531 23.035156 L 8.414062 0.800781 Z M 0.890625 0.800781 " fill-opacity="1" fill-rule="nonzero"/></g><g clip-path="url(#930dea6ef8)"><path fill="#ffffff" d="M 10.449219 0.800781 L 9.367188 0.800781 L 16.847656 23.035156 L 17.925781 23.035156 Z M 10.449219 0.800781 " fill-opacity="1" fill-rule="nonzero"/></g></g></g></g></g></svg>